<svg xmlns="http://www.w3.org/2000/svg" xmlns:xlink="http://www.w3.org/1999/xlink" viewBox="2600 -200 1100.0378 190.6" width="1100.0378" height="190.6">
  <path d="M2735.5-10.2h-50.7v-72.3H2652v72.3h-52v-186.5h51.9v69.6h32.8v-69.6h50.7v186.5h.1zm232.4.8c51.9 0 94.3-43.2 94.3-95.8 0-53.4-42.4-94.7-94.3-94.7-52.6 0-79.2 38.2-85.6 53.8 0-23.1-23.1-50.7-49.9-50.7h-86.6v186.6h80.6c32.8 0 55.9-28 55.9-52.6 7.3 15.2 33.1 53.4 85.6 53.4zM2820-85.2c7.5 0 13.5 7.3 13.5 15.6 0 8.7-6 16-13.5 16h-25.8v-31.6h25.8zm0-70c7.5 0 13.5 7.3 13.5 15.6s-6 15.6-13.5 15.6h-25.8v-31.2h25.8zm34.1 50c6-.4 15.8-7.3 19.5-11.4-1.4 5-1.4 20.8 0 25.8-4.1-6.1-13.5-13.3-19.5-14.4zm66.5 0c0-26.3 21.4-47.5 47.7-47.4 26.4.2 47.4 21.7 47.1 48.1-.4 26-21.4 46.9-47.4 46.9-26.2 0-47.4-21.2-47.4-47.6zm47.3 37.4c20.2 0 37.2-16.6 37.2-37.4 0-20.8-17-37.2-37.2-37.2-20.8 0-37.4 16.4-37.4 37.2 0 20.8 16.6 37.4 37.4 37.4z"/>
  <linearGradient id="a" gradientUnits="userSpaceOnUse" x1="3080.6379" y1="-104.7449" x2="3700" y2="-104.7449" gradientTransform="translate(0 .1)">
    <stop offset="0" stop-color="#991eeb"/>
    <stop offset=".399" stop-color="#5822b4"/>
    <stop offset=".727" stop-color="#5822b4"/>
    <stop offset="1" stop-color="#991eeb"/>
  </linearGradient>
  <path d="M3333.2-130.7c-1-45.2-33-69.1-72.2-69.1-21.5 0-40.9 7.2-54.1 21.2-13.2-14-32.6-21.2-54.1-21.2-39.2 0-71.2 24-72.2 69.2V-27.2c0 9.5 7.7 17.1 17.1 17.1h16.2c1.6 0 2.9-1.3 2.9-2.9v-117.4c.7-22.3 16.5-34.1 36-34.1s35.3 11.8 36 34.1v103.1c0 9.5 7.7 17.1 17.1 17.1h16.2c1.6 0 2.9-1.3 2.9-2.9v-117.4c.7-22.3 16.5-34.1 36-34.1s35.3 11.8 36 34.1v103.1c0 9.5 7.7 17.1 17.1 17.1h16.2c1.6 0 2.9-1.3 2.9-2.9v-117.4c.1.1 0 0 0-.1zm364.7-66.2h-27.5c-7.6 0-14.7 3.8-19 10.1l-30.4 45c-4 5.9-12.6 5.9-16.6 0l-30.4-45c-4.2-6.3-11.4-10.1-19-10.1h-27.5c-1.7 0-2.7 1.9-1.8 3.3l54.2 80.4c3.9 5.8 3.9 13.4 0 19.2l-54.2 80.4c-1 1.4.1 3.3 1.8 3.3h27.5c7.6 0 14.7-3.8 19-10.1l30.4-45c4-5.9 12.6-5.9 16.6 0l30.4 45c4.2 6.3 11.4 10.1 19 10.1h27.5c1.7 0 2.7-1.9 1.8-3.3l-54.3-80.3c-3.9-5.8-3.9-13.4 0-19.2l54.2-80.4c1-1.4 0-3.4-1.7-3.4zm-184.6 0h-16.2c-8.2 0-15.1 5.8-16.8 13.5-14.4-11-32.5-16.6-52-16.6-47.4 0-85.9 33-85.9 95.3s38.4 95.3 85.9 95.3c19.4 0 37.3-5.5 51.7-16.3.8 8.7 8.1 15.6 17.1 15.6h16.2c1.6 0 2.9-1.3 2.9-2.9v-181c-.1-1.6-1.3-2.9-2.9-2.9zm-85 152.1c-28.3 0-51.3-20.7-51.3-59.8 0-39.1 23-59.8 51.3-59.8 28.3 0 51.3 20.7 51.3 59.8 0 39.1-23 59.8-51.3 59.8z" fill="url(#a)"/>
  <g transform="translate(0 .1)">
    <defs>
      <path id="b" d="M3333.2-130.8c-1-45.2-33-69.1-72.2-69.1-21.5 0-40.9 7.2-54.1 21.2-13.2-14-32.6-21.2-54.1-21.2-39.2 0-71.2 24-72.2 69.2V-27.3c0 9.5 7.7 17.1 17.1 17.1h16.2c1.6 0 2.9-1.3 2.9-2.9v-117.4c.7-22.3 16.5-34.1 36-34.1s35.3 11.8 36 34.1v103.1c0 9.5 7.7 17.1 17.1 17.1h16.2c1.6 0 2.9-1.3 2.9-2.9v-117.4c.7-22.3 16.5-34.1 36-34.1s35.3 11.8 36 34.1v103.1c0 9.5 7.7 17.1 17.1 17.1h16.2c1.6 0 2.9-1.3 2.9-2.9v-117.4c.1.1 0 0 0-.1zm364.7-66.2h-27.5c-7.6 0-14.7 3.8-19 10.1l-30.4 45c-4 5.9-12.6 5.9-16.6 0l-30.4-45c-4.2-6.3-11.4-10.1-19-10.1h-27.5c-1.7 0-2.7 1.9-1.8 3.3l54.2 80.4c3.9 5.8 3.9 13.4 0 19.2l-54.2 80.4c-1 1.4.1 3.3 1.8 3.3h27.5c7.6 0 14.7-3.8 19-10.1l30.4-45c4-5.9 12.6-5.9 16.6 0l30.4 45c4.2 6.3 11.4 10.1 19 10.1h27.5c1.7 0 2.7-1.9 1.8-3.3L3645.4-94c-3.9-5.8-3.9-13.4 0-19.2l54.2-80.4c1-1.4 0-3.4-1.7-3.4zm-184.6 0h-16.2c-8.2 0-15.1 5.8-16.8 13.5-14.4-11-32.5-16.6-52-16.6-47.4 0-85.9 33-85.9 95.3s38.4 95.3 85.9 95.3c19.4 0 37.3-5.5 51.7-16.3.8 8.7 8.1 15.6 17.1 15.6h16.2c1.6 0 2.9-1.3 2.9-2.9v-181c-.1-1.6-1.3-2.9-2.9-2.9zm-85 152.1c-28.3 0-51.3-20.7-51.3-59.8 0-39.1 23-59.8 51.3-59.8 28.3 0 51.3 20.7 51.3 59.8 0 39.1-23 59.8-51.3 59.8z"/>
    </defs>
    <clipPath id="c">
      <use xlink:href="#b" width="100%" height="100%" overflow="visible"/>
    </clipPath>
    <radialGradient id="d" cx="1494.3917" cy="-276.4414" r="164.5752" gradientTransform="matrix(.672 0 0 .8748 2225.512 101.9935)" gradientUnits="userSpaceOnUse">
      <stop offset="0" stop-color="#7ba7f2" stop-opacity=".5"/>
      <stop offset="1" stop-color="#7ba7f2" stop-opacity="0"/>
    </radialGradient>
    <ellipse cx="3229.7" cy="-139.8" rx="110.6" ry="144" clip-path="url(#c)" fill="url(#d)"/>
    <radialGradient id="e" cx="3339.8582" cy="-386.7418" r="227.5584" gradientTransform="matrix(1 0 0 .7081 0 254.0226)" gradientUnits="userSpaceOnUse">
      <stop offset=".2" stop-color="#7ba7f2"/>
      <stop offset="1" stop-color="#7ba7f2" stop-opacity="0"/>
    </radialGradient>
    <ellipse cx="3339.8999" cy="-19.8" rx="227.6" ry="161.1" clip-path="url(#c)" fill="url(#e)"/>
    <radialGradient id="f" cx="3479.5854" cy="-189.1615" r="123.7732" gradientUnits="userSpaceOnUse">
      <stop offset="0" stop-color="#7ba7f2"/>
      <stop offset="1" stop-color="#7ba7f2" stop-opacity="0"/>
    </radialGradient>
    <circle cx="3479.6001" cy="-189.2" r="123.8" clip-path="url(#c)" fill="url(#f)"/>
  </g>
</svg>
