<svg xmlns="http://www.w3.org/2000/svg" width="600" height="134.0148">
  <path d="M533.8146 101.1282c-18.3821 0-33.3058-14.9237-33.3058-33.3058 0-18.392 14.9237-33.2958 33.3058-33.2958 18.392 0 33.286 14.9039 33.286 33.2958 0 18.3821-14.894 33.3058-33.286 33.3058m-.2477-100.0064c-36.7048 0-66.453 29.7581-66.453 66.4529 0 36.6849 29.7482 66.4331 66.453 66.4331 36.6848 0 66.4331-29.7482 66.4331-66.4331 0-36.6948-29.7483-66.453-66.4331-66.453"/>
  <path d="M533.5649 41.4504c-14.4282 0-26.1313 11.6832-26.1313 26.1213 0 14.4183 11.7031 26.1214 26.1313 26.1214s26.1214-11.703 26.1214-26.1214c0-14.438-11.6932-26.1213-26.1214-26.1213" fill="#4279bb"/>
  <path d="M398.0141 85.597h37.3885c-8.3438 24.0405-31.086 20.037-31.086 20.037-18.3722-.3369-26.9935-15.3596-26.9935-15.3596-15.3696-26.726 0-46.4061 0-46.4061 7.006-12.3572 25.3683-13.695 25.3683-13.695 22.3657 0 30.0455 16.6975 30.0455 16.6975h34.713c-8.6907-26.5574-33.6626-45.752-63.1333-45.752-36.685 0-66.4233 29.7581-66.4233 66.453 0 36.6848 29.7384 66.443 66.4233 66.443 36.7146 0 66.4529-29.7582 66.4529-66.443 0-2.4873-.1486-4.935-.4162-7.343h-72.3392v25.3683zM256.596 92.1879c14.3786 0 26.0024-11.6536 26.0024-26.0223 0-14.3786-11.6238-26.0322-26.0024-26.0322-14.3687 0-26.0223 11.6536-26.0223 26.0322 0 14.3687 11.6536 26.0223 26.0223 26.0223m-33.1076-26.0223c0-18.3028 14.8345-33.1075 33.1076-33.1075 18.283 0 33.1174 14.8047 33.1174 33.1075 0 18.273-14.8344 33.0976-33.1174 33.0976-18.273 0-33.1076-14.8245-33.1076-33.0976m-46.089 0c4.0827-.5351 10.9104-5.2025 13.3184-8.205-.8423 3.716-.9018 14.448.0793 18.1442-2.745-4.2214-9.2456-9.424-13.3977-9.9392M153.597 31.1158c5.2024 0 9.295 5.1331 9.295 10.9896 0 5.8367-4.0926 10.9896-9.295 10.9896h-17.8867V31.1158h17.8867zm-.0694 48.824c5.2124 0 9.305 5.1331 9.305 10.9995 0 5.8466-4.0926 10.9797-9.305 10.9797h-17.8767V79.9398h17.8767zm103.0486 52.9265c36.4372-.01 66.0863-30.2933 66.0764-66.7205 0-37.22-29.6392-66.126-66.0764-66.1458-36.4074-.0396-54.9976 26.7457-59.5857 37.5668.0396-16.2218-15.9542-35.3867-34.6732-35.4164h-60.2893v130.052l56.2066.0197c22.6728 0 38.7956-19.6306 38.8154-36.4668 5.1925 10.5932 23.1188 37.1308 59.5262 37.111m-161.911-.6144H59.328v-50.459H36.3875v50.459H.119L0 2.17h36.3876v48.398H59.328V2.17h35.3372v130.0817z"/>
</svg>
