<svg xmlns="http://www.w3.org/2000/svg" xmlns:xlink="http://www.w3.org/1999/xlink" width="434.4464" height="434.4464" viewBox="0 0 407.2935 407.2935">
  <defs>
    <radialGradient xlink:href="#a" id="c" cx="367.9916" cy="280.3665" fx="367.9916" fy="280.3665" r="368.7173" gradientTransform="matrix(.30407 -.10528 3.8564 11.13776 -825.1108 -2803.5461)" gradientUnits="userSpaceOnUse"/>
    <radialGradient xlink:href="#a" id="b" gradientUnits="userSpaceOnUse" gradientTransform="matrix(.30407 -.10528 3.8564 11.13776 -825.1108 -2803.5461)" cx="367.9916" cy="280.3665" fx="367.9916" fy="280.3665" r="368.7173"/>
    <linearGradient id="a">
      <stop offset="0"/>
      <stop offset="1" stop-opacity="0"/>
    </linearGradient>
  </defs>
  <g transform="translate(12.4945 6.7556)">
    <rect ry="37.4558" y="-6.7556" x="-12.4945" height="407.2935" width="407.2935"/>
    <g fill-rule="evenodd">
      <path d="M212.9955 58.9365l-.1074 61.0554-.1079 61.0554-5.0232-14.1735-.0096-.0279-6.4911 135.9256c6.382 18.0226 9.8013 27.6438 9.8397 27.6822.0502.0502 3.6872.2696 8.0822.4878 13.3159.6607 29.8168 2.0766 42.3345 3.632 2.8983.36 5.3926.5444 5.5428.41.1502-.1346.232-62.3002.1817-138.146l-.0914-137.901h-54.1503zM115.0524 58.7548v138.0408c0 75.9225.0743 138.1156.1652 138.2066.091.091 4.7928-.353 10.4485-.9864 5.6557-.6334 13.4723-1.421 17.37-1.7501 5.978-.5047 23.8262-1.6522 25.893-1.665.6011-.0037.6397-3.1055.7268-58.4682l.092-58.4643 4.3185 12.2184c.6674 1.8885.8767 2.4782 1.527 4.318l6.4893-135.892c-1.375-3.8876-.6542-1.8469-2.23-6.302-5.3021-14.9914-9.8014-27.7067-9.9986-28.2564l-.359-.9994h-54.4427z" fill="#b1060f" stroke="#000" stroke-width=".29074"/>
      <path d="M114.9512-189.2285V77.2852l187.746 498.0234c.0197-11.4127.042-17.5793.0626-30.625l.3164-201.0879 14.8535 42.0254c82.681 233.9563 127.102 359.397 127.3633 359.6582.1728.1729 12.6822.9275 27.7988 1.6777 45.7998 2.2727 102.555 7.1427 145.6094 12.4922 9.9687 1.2385 18.548 1.8728 19.0644 1.4102.355-.318.5868-105.1581.6485-253.0586L451.5469-29.4434l-.09 50.8399-.371 210-17.2774-48.75c-16.8818-47.6341-28.1537-79.49-95.9765-271.25-18.237-51.5625-33.7123-95.297-34.3906-97.1875l-1.2344-3.4375H114.951z" fill="url(#b)" transform="translate(81.6315 113.7711) scale(.29074)"/>
      <path d="M115.0535 58.7548l54.6944 154.9838v-.0704l4.3185 12.2184c24.0387 68.0205 36.9536 104.4911 37.0296 104.567.0502.0503 3.6872.2697 8.0822.4879 13.3159.6607 29.8168 2.0766 42.3345 3.632 2.8835.3582 5.365.5422 5.5383.4116L212.7802 181.019v.0283l-5.0232-14.1736c-4.9082-13.849-8.1854-23.1109-27.9042-78.8632-5.3022-14.9913-9.8015-27.7066-9.9987-28.2563l-.359-.9994h-54.4416z" fill="#e50914"/>
      <path d="M212.9955 58.9365l-.1074 61.0554-.1079 61.0554-5.0232-14.1735-.0096-.0279-6.4911 135.9256c6.382 18.0226 9.8013 27.6438 9.8397 27.6822.0502.0502 3.6872.2696 8.0822.4878 13.3159.6607 29.8168 2.0766 42.3345 3.632 2.8983.36 5.3926.5444 5.5428.41.1502-.1346.232-62.3002.1817-138.146l-.0914-137.901h-54.1503zM115.0524 58.7548v138.0408c0 75.9225.0743 138.1156.1652 138.2066.091.091 4.7928-.353 10.4485-.9864 5.6557-.6334 13.4723-1.421 17.37-1.7501 5.978-.5047 23.8262-1.6522 25.893-1.665.6011-.0037.6397-3.1055.7268-58.4682l.092-58.4643 4.3185 12.2184c.6674 1.8885.8767 2.4782 1.527 4.318l6.4893-135.892c-1.375-3.8876-.6542-1.8469-2.23-6.302-5.3021-14.9914-9.8014-27.7067-9.9986-28.2564l-.359-.9994h-54.4427z" fill="#b1060f" stroke="#000" stroke-width=".29074"/>
      <path d="M114.9512-189.2285V77.2852l187.746 498.0234c.0197-11.4127.042-17.5793.0626-30.625l.3164-201.0879 14.8535 42.0254c82.681 233.9563 127.102 359.397 127.3633 359.6582.1728.1729 12.6822.9275 27.7988 1.6777 45.7998 2.2727 102.555 7.1427 145.6094 12.4922 9.9687 1.2385 18.548 1.8728 19.0644 1.4102.355-.318.5868-105.1581.6485-253.0586L451.5469-29.4434l-.09 50.8399-.371 210-17.2774-48.75c-16.8818-47.6341-28.1537-79.49-95.9765-271.25-18.237-51.5625-33.7123-95.297-34.3906-97.1875l-1.2344-3.4375H114.951z" fill="url(#c)" transform="translate(81.6315 113.7711) scale(.29074)"/>
      <path d="M115.0535 58.7548l54.6944 154.9838v-.0704l4.3185 12.2184c24.0387 68.0205 36.9536 104.4911 37.0296 104.567.0502.0503 3.6872.2697 8.0822.4879 13.3159.6607 29.8168 2.0766 42.3345 3.632 2.8835.3582 5.365.5422 5.5383.4116L212.7802 181.019v.0283l-5.0232-14.1736c-4.9082-13.849-8.1854-23.1109-27.9042-78.8632-5.3022-14.9913-9.8015-27.7066-9.9987-28.2563l-.359-.9994h-54.4416z" fill="#e50914"/>
    </g>
  </g>
</svg>
