<svg xmlns="http://www.w3.org/2000/svg" width="341.5704" height="105.0728" viewBox="0 0 320.2223 98.5057">
  <path d="M113.1807 97.9513c-22.3475-2.082-42.5887-9.731-59.856-22.619-4.8404-3.613-9.5543-7.658-9.7902-8.4012-.2643-.8327.4053-1.831 1.228-1.831.397 0 2.6805 1.0827 5.0745 2.406 15.1344 8.3654 33.6201 14.5326 51.7645 17.2697 14.5396 2.1933 30.8813 2.255 45.0648.17 11.885-1.747 24.8994-5.2442 35.4289-9.5203 2.1155-.859 4.2795-1.5622 4.8089-1.5624 1.8506-.0007 2.932 2.1209 1.8607 3.6505-.2545.3633-1.9092 1.638-3.6772 2.8325-13.0703 8.8312-29.033 14.5223-48.1227 17.1568-4.2447.5858-19.2689.869-23.7842.4484z" fill="#1e1e1e"/>
  <path d="M190.5752 91.1863c-.1086-.283.0565-1.1631.367-1.9559 1.8245-4.6587 4.2308-12.3576 4.5655-14.6069.6558-4.4081-.0713-5.495-4.0896-6.113-2.527-.3887-7.0213-.2598-13.5635.3892-3.0284.3004-4.049.3067-4.3291.0265-1.0121-1.0121 1.8743-3.3178 6.1979-4.951 5.1129-1.9314 13.5102-2.6047 18.816-1.5087 4.262.8803 4.7708 1.4267 4.7708 5.123 0 5.4356-2.3462 12.7674-5.7633 18.0097-2.9845 4.5785-6.33 7.2596-6.9717 5.5871z" fill="#1e1e1e"/>
  <path d="M238.2041 64.3461c-12.2053-2.3655-21.8193-11.4916-25.0856-23.8126-.7273-2.7433-.8297-3.728-.8297-7.9802 0-4.2255.1043-5.2422.8093-7.8881 3.0838-11.5735 11.8434-20.4266 23.0561-23.3023 10.9468-2.8075 22.3866.3282 30.3877 8.3293 4.7209 4.7209 7.6016 10.206 9.048 17.228.5289 2.5683.4451 9.1446-.1534 12.0426-2.4836 12.0236-11.0051 21.2585-22.8367 24.7481-2.3663.698-3.567.849-7.5108.9453-3.1187.076-5.4295-.028-6.8849-.31z" fill="#7bad2a"/>
  <path d="M248.062 39.778c11.22-5.4929 12.6853-6.2934 12.7686-6.9763.0517-.4243-.0891-.9168-.313-1.0945-.2238-.1777-5.9689-2.9539-12.7668-6.1693-10.5625-4.9961-12.4625-5.7995-13.0656-5.5247l-.7059.3216v12.346c0 10.8062.0613 12.4071.4918 12.8376.2705.2705.5873.4856.7041.4782.1168-.0076 5.9159-2.8059 12.8869-6.2186z" fill="#fff"/>
  <path d="M23.3444 6.6302c-7.0575-.0615-12.8722 2.081-16.6634 6.1637-1.7932 1.931-3.6018 5.5726-3.863 7.7779-.17 1.4356-.117 1.6324.5556 2.053.439.2747 2.6566.6739 5.4106.9744 5.3085.5793 5.5369.5163 6.1307-1.6888.9966-3.7011 4.9166-5.9515 8.8035-5.0543 3.3279.7682 4.4824 2.4736 4.8349 7.1422.25 3.3113.5036 3.0634-3.4682 3.393-3.6669.3042-9.4028 1.3189-11.7356 2.0757C5.5031 32.0126 1.1646 37.8064 1.1494 45.76c-.014 7.2357 3.206 12.0867 9.3206 14.0417 2.2576.7219 7.2477.7825 10.0486.1223 2.5035-.5901 5.2505-2.0371 7.341-3.8666.8838-.7736 1.8322-1.593 2.1074-1.8209.437-.3616.7051-.1383 2.1161 1.7591 1.8657 2.509 3.7255 4.1 4.7829 4.0916.6844-.0054 7.0169-5.175 8.49-6.9307.6718-.8008.5105-1.4255-.868-3.3643-.5613-.7893-1.3537-2.0689-1.7615-2.8434-.7363-1.398-.7436-1.5045-.9395-14.7086-.1265-8.527-.3286-13.8005-.5636-14.6946-.5991-2.2803-2.214-4.9646-3.9088-6.4968-2.9747-2.6892-7.0308-4.1048-12.5424-4.377a35.1423 35.1423 0 00-1.4278-.0416zm5.3397 28.02l-.0074.9077c-.0318 3.895-.6376 8.4042-1.3337 9.9246-.9504 2.076-2.476 3.8296-4.0151 4.6147-1.7164.8756-4.5518.8288-5.9143-.0971-1.4816-1.0069-2.3074-2.804-2.451-5.336-.1775-3.1283.3852-4.7543 2.3122-6.6851 1.9427-1.9464 4.3823-2.8302 8.6502-3.1332l2.759-.1956zM146.3067 6.7244c-2.81-.015-5.8614.1848-7.5541.5818-2.9703.6967-6.8227 2.579-8.7474 4.2732-2.4727 2.1765-4.467 5.7423-5.0793 9.0816-.369 2.0126.0576 2.2294 5.63 2.8563 3.2304.3634 5.1331.4534 5.4938.2604.3035-.1625.7198-.8245.9248-1.4713 1.1884-3.7494 3.562-5.5361 7.3445-5.5291 2.2387.0041 3.1923.322 4.4895 1.4975 1.3037 1.1813 1.7056 2.3874 1.8606 5.578.1732 3.5653.8859 3.0955-5.8421 3.8533-8.3887.9447-12.834 2.5254-16.469 5.8561-7.305 6.6938-6.6875 20.1878 1.1387 24.8759.9231.553 2.453 1.2216 3.3997 1.4859 2.5326.707 8.897.4659 11.4226-.4328 2.1881-.7785 4.3406-2.1499 6.6624-4.2443.9104-.8212 1.6954-1.4397 1.7445-1.3747.049.065.4247.6109.835 1.2133.4101.6024 1.5836 1.9755 2.608 3.0513 2.6428 2.7752 2.7303 2.7573 7.6282-1.5807 2.1963-1.9452 4.0351-3.821 4.086-4.1686.051-.3476-.4254-1.3851-1.0586-2.3055-.6331-.9205-1.52-2.4598-1.9706-3.4205l-.819-1.7469-.1828-13.3003c-.1918-13.9402-.2291-14.313-1.7157-17.2508-1.5844-3.1311-5.8554-6.0723-10.463-7.2052-1.1412-.2805-3.181-.4223-5.3667-.434zm2.8906 28.0194h1.5372l-.0055 3.0512c-.0102 5.7348-1.4767 9.7019-4.3593 11.79-1.0875.7878-1.652.9602-3.3984 1.0397-2.9681.1353-4.736-1.0755-5.5445-3.7981-1.2771-4.3006.2364-8.3268 3.874-10.3066 1.7221-.9373 5.4515-1.7762 7.8964-1.7762zM52.9863 59.2077c-.4727-.5224-.5179-2.7317-.5179-25.3266 0-22.0867.053-24.8073.4918-25.2461.728-.728 10.4936-.728 11.2215 0 .3884.3884.4918 1.2273.492 3.9901l.0003 3.4983.8965-1.8777c2.4977-5.2309 7.744-7.9555 13.5763-7.0505 3.9215.6084 6.9998 2.8797 9.0072 6.6459l1.0032 1.8823.9156-1.6777c2.0203-3.7022 5.5435-6.1602 9.806-6.8411 5.9707-.9538 12.355 2.3945 14.2596 7.4786 1.1374 3.036 1.2635 5.7704 1.1683 25.328-.0889 18.2725-.1114 18.8949-.6993 19.3247-.877.641-10.7389.6411-11.616 0-.586-.4283-.613-1.084-.764-18.5423-.1512-17.4905-.1778-18.1348-.7934-19.1826-.9104-1.5496-2.2189-2.21-4.4406-2.2413-2.1746-.0307-3.3323.4723-4.7168 2.0492-1.7238 1.9632-1.7354 2.0874-1.9236 20.47-.1676 16.3632-.197 17.0198-.7816 17.447-.4672.3415-1.8039.4428-5.7896.4392-2.8501-.0025-5.3933-.1382-5.6515-.3013-.4045-.2555-.4934-2.6882-.6431-17.5986-.1945-19.3634-.2239-19.636-2.32-21.4764-2.0552-1.8045-5.5392-1.6253-7.5529.3883-2.0658 2.0659-2.1146 2.5267-2.2412 21.152-.1004 14.762-.1727 16.8054-.6117 17.2906-.4383.4843-1.1422.5501-5.8775.5501-4.8143 0-5.434-.0601-5.8976-.5723zM281.6455 59.534c-.9913-.6302-1.0503-2.1137-1.0293-25.8533.0163-18.2267.1119-24.014.407-24.6064.3853-.7735.3936-.7747 5.731-.86 4.6859-.075 5.399-.0208 5.7807.4392.318.383.4355 1.525.4355 4.2319 0 2.039.014 3.7073.0314 3.7074.0172 0 .5094-.9416 1.0936-2.0926 2.1931-4.3208 5.2293-6.6457 9.536-7.3021 5.6417-.8599 11.1005 1.6563 13.3883 6.171 1.8916 3.733 1.8697 3.4556 2.0002 25.2411.111 18.54.081 20.026-.4172 20.5765-.4874.5386-1.033.5933-5.9165.5933-4.8142 0-5.434-.0602-5.8975-.5723-.4679-.517-.518-2.1312-.518-16.6854 0-10.1534-.1247-16.7998-.337-17.97-.7064-3.891-2.6903-5.6956-5.9202-5.3853-2.8982.2785-4.9335 2.636-5.798 6.7154-.358 1.6904-.453 5.2996-.4573 17.3894-.0054 14.8353-.0229 15.2736-.6314 15.8823-.5765.5765-1.0396.6255-5.8678.621-2.883-.0024-5.4091-.111-5.6135-.241zM174.031 58.0833c-.5584-.409-.6075-.858-.6075-5.5549 0-3.641.1241-5.4042.4318-6.1334.2375-.5629 4.5786-7.041 9.6468-14.3957l9.215-13.3723-8.3424-.1564c-7.7978-.1463-8.3714-.1962-8.7862-.764-.3283-.4495-.4438-1.6501-.4438-4.616 0-3.5913.0652-4.0737.626-4.6344.6093-.6094 1.0431-.626 16.3951-.626 15.0622 0 15.8025.027 16.5081.5985.7017.5684.7389.786.7389 4.3304v3.732l-1.2241 1.8503c-.6733 1.0177-4.722 6.8878-8.9973 13.0446-4.2753 6.1568-7.7733 11.241-7.7733 11.2984 0 .0573 1.6548.1855 3.6772.285 4.244.2086 8.5352 1.2 11.7278 2.7095 3.278 1.5499 3.372 1.7508 3.372 7.2099 0 4.0624-.0672 4.6644-.5723 5.1214-.7522.6808-1.0501.6569-2.8023-.2248-8.3737-4.2138-20.3819-4.3715-29.0187-.381-2.7396 1.2658-2.924 1.299-3.7708.6789z" fill="#1e1e1e"/>
</svg>
