<svg viewBox="0 0 300 300" xmlns="http://www.w3.org/2000/svg" fill-rule="evenodd" clip-rule="evenodd" stroke-linejoin="round" stroke-miterlimit="2">
  <path fill="#1a1d29" d="M0 0h299.9998v299.9997H0z"/>
  <path d="M205.0542 171.2904c-3.6854.8446-13.385 1.3308-13.385 1.3308l-1.2285 3.839s4.837-.4096 8.3688-.0513c0 0 1.1517-.128 1.2797 1.3053.0512 1.3308-.1024 2.764-.1024 2.764s-.0768.8701-1.3052 1.0749c-1.3309.2303-10.4419.563-10.4419.563l-1.4844 4.9906s-.5374 1.1517.691.819c1.1517-.3071 10.6978-2.0986 11.9519-1.8427 1.3308.3327 2.8152 2.0986 2.38 3.7365-.5118 1.9963-10.0323 8.0874-15.8418 7.6523 0 0-3.0456.2047-5.6304-3.9157-2.4057-3.9157.9213-11.3632.9213-11.3632s-1.51-3.4806-.4095-4.6323c0 0 .6654-.5886 2.5593-.7422l2.329-4.837s-2.6617.1791-4.2485-1.7659c-1.4843-1.8683-1.5867-2.7128-.4606-3.2247 1.2028-.5886 12.2845-2.6104 19.9111-2.3545 0 0 2.6617-.256 4.9394 4.3507-.0256 0 1.1005 1.8683-.7933 2.3034zm-28.6895 18.5803c-.9725 2.3034-3.5574 4.7603-6.7565 3.2247-3.1735-1.5355-8.2153-11.8494-8.2153-11.8494s-1.9194-3.839-2.2777-3.7622c0 0-.4095-.7421-.6654 3.455-.256 4.1973.0512 12.3614-1.6124 13.641-1.5867 1.2796-3.5062.7678-4.5043-.7422-.8957-1.4844-1.2796-5.0162-.7934-11.2096.5887-6.1935 2.0219-12.7964 3.8645-14.8694 1.8427-2.0474 3.327-.563 3.8901-.0256 0 0 2.457 2.2266 6.5262 8.7783l.7166 1.2029s3.6853 6.1934 4.0692 6.1678c0 0 .3071.2815.563.0768.384-.1024.2304-2.0986.2304-2.0986s-.7678-6.7309-4.1204-18.1453c0 0-.5119-1.4332-.1536-2.764.3327-1.3564 1.6891-.7166 1.6891-.7166s5.221 2.6105 7.729 11.1073c2.4825 8.5736.7934 16.2258-.1791 18.5291zm-25.644-21.8306c-.435.8702-.691 2.1242-2.892 2.457 0 0-21.0627 1.4331-22.0609 2.9175 0 0-.7422.8701.4095 1.126 1.1517.2304 5.912.8702 8.2153.9982 2.4569.0256 10.749.1024 13.7177 3.8133 0 0 1.7659 1.766 1.6891 5.7584-.0768 4.0948-.7934 5.528-2.3801 7.0124-1.6635 1.382-15.9443 7.7802-25.1577-2.0474 0 0-4.2484-4.7347 1.4588-8.3177 0 0 4.1204-2.4825 14.5879.4351 0 0 3.1735 1.1517 3.02 2.3034-.1792 1.2284-2.6105 2.5336-6.1423 2.4569-3.4295-.1024-5.9376-1.7403-5.4513-1.4844.4607.1791-3.6853-1.9963-4.965-.5119-1.2796 1.3564-.9725 2.201.2815 3.0456 3.1991 1.817 15.5604 1.1772 19.2458-2.9176 0 0 1.4588-1.6635-.7678-3.02-2.2266-1.2796-8.5992-2.0474-11.0817-2.1753-2.38-.128-11.2352.0256-12.5148-2.329 0 0-1.2796-1.5867.128-6.091 1.4843-4.7091 11.7982-6.5262 16.2513-6.9357 0 0 12.259-.435 14.5111 2.073-.0256 0 .2816.5887-.1023 1.4332zm-34.806 27.6146c-1.4845 1.1005-4.6324.6142-5.5281-.6142-.8958-1.1005-1.2029-5.4769-1.0237-12.3357.1791-6.9357.3327-15.5348 1.817-16.8913 1.5868-1.382 2.5593-.1791 3.1736.7678.6654.9214 1.4588 1.945 1.6379 4.1205.1536 2.1753.6654 13.5897.6654 13.5897s.6654 10.2883-.7422 11.3632zm3.199-36.8024c-4.3252 1.4332-7.294.947-9.802-.128-1.1005 1.9195-1.7403 2.5081-2.5849 2.6361-1.2284.128-2.329-1.8427-2.5337-2.4825-.2047-.4863-.7933-1.3052-.0767-3.2503-2.457-2.201-2.636-5.1697-2.2266-7.166.6142-2.3033 4.7603-11.056 17.3775-12.0797 0 0 6.1678-.4607 7.2171 2.8408h.1792s5.9887.0256 5.8607 5.3489c-.0768 5.3488-6.6541 12.003-13.4106 14.2807zm-11.7726-11.8494c-1.2797 2.0474-1.3309 3.2758-.7422 4.1204 1.4588-2.2266 4.1204-5.7328 8.036-8.3944-3.0199.256-5.5535 1.5611-7.2938 4.274zm17.4286-3.4295c-3.9669.5887-10.1091 5.912-13.0267 10.2627 4.4787.819 12.3869.5119 15.8931-6.6285-.0256 0 1.6635-4.4275-2.8664-3.6342zm107.6943 41.23c-2.3801 4.146-9.0598 12.7963-17.9661 10.7745-2.9432 7.1404-5.4 14.332-6.8077 25.1321 0 0-.3071 2.0986-2.0474 1.3564-1.7147-.6142-4.5811-3.4806-5.1442-7.4475-.6142-5.2209 1.7148-14.0504 6.4494-24.1595-1.382-2.2522-2.329-5.4769-1.51-10.058 0 0 1.203-8.4968 9.7253-16.1746 0 0 1.0237-.8958 1.6123-.6142.6654.2815.3583 3.0455-.1791 4.3763-.5375 1.3309-4.3508 7.9338-4.3508 7.9338s-2.3801 4.4531-1.7147 7.9593c4.4787-6.8844 14.6646-20.7813 20.986-16.405 2.1243 1.51 3.0968 4.8115 3.0968 8.369-.0256 3.1478-.7678 6.4749-2.1498 8.9574zm-1.8427-10.9025s-.3583-2.7385-3.02.2815c-2.3033 2.5337-6.4493 7.3195-9.802 13.7945 3.5063-.384 6.8845-2.3034 7.9082-3.2759 1.6635-1.4844 5.528-5.4769 4.9138-10.8001zm-124.2528 3.4806c-.4862 6.1934-2.8664 16.6097-19.732 21.7538-11.1328 3.3527-21.6514 1.7403-27.3842.2815-.128 2.2778-.3839 3.2503-.7422 3.6342-.4863.4863-4.1204 2.5849-6.1167-.3839-.8957-1.4076-1.3564-3.9669-1.6123-6.2446-12.8988-5.9375-18.8363-14.4855-19.0666-14.8694-.2815-.2815-3.2247-3.3527-.2815-7.1148 2.764-3.4038 11.7982-6.8077 19.9367-8.1897.2815-6.9612 1.1005-12.2077 2.073-14.6134 1.1773-2.7896 2.6617-.2816 3.9413 1.6123 1.075 1.4076 1.7147 7.473 1.766 12.3101 5.3232-.256 8.4711.128 14.4086 1.2029 7.729 1.4076 12.8988 5.3489 12.4381 9.8276-.3327 4.402-4.3764 6.219-5.912 6.347-1.6123.128-4.1203-1.0237-4.1203-1.0237-1.7148-.819-.128-1.5356 1.945-2.4313 2.2522-1.1005 1.7403-2.2266 1.7403-2.2266-.8446-2.4569-10.877-4.1716-20.858-4.1716-.0513 5.5024.2303 14.639.3582 19.9623 6.9868 1.3309 12.2078 1.075 12.2078 1.075s25.4903-.7167 26.2581-16.9937c.7934-16.3025-25.4136-31.9397-44.7873-36.9047-19.3481-5.0674-30.3018-1.5356-31.2487-1.0493-1.0237.5118-.0768.6654-.0768.6654s1.0493.1536 2.8664.7678c1.9194.6142.435 1.6123.435 1.6123-3.3014 1.0493-7.0124.384-7.729-1.126-.7166-1.51.4863-2.8664 1.8683-4.8115 1.382-2.0474 2.892-1.9706 2.892-1.9706 23.9292-8.292 53.0793 6.7053 53.0793 6.7053 27.3075 13.8456 31.9654 30.0715 31.4535 36.3673zm-72.2227-.8446c-2.7128 1.3308-.8446 3.2503-.8446 3.2503 5.093 5.4768 11.3632 8.9063 17.3263 11.0305.691-9.4438.5887-12.7708.6654-17.531-9.3157.6397-14.6902 2.1241-17.147 3.2502zM283.1376 174.5919v3.3782c0 .7422-.5886 1.3308-1.3308 1.3308H265.709c0 .8446.0256 1.5868.0256 2.2778 0 4.9906-.2048 9.0598-.691 13.641-.0768.691-.6399 1.2028-1.3053 1.2028h-3.4806a1.239 1.239 0 01-.9213-.4095c-.2304-.256-.3583-.6142-.3071-.9725.4862-4.5555.7166-8.5736.7166-13.4618 0-.7166 0-1.4588-.0256-2.2778h-15.9187c-.7422 0-1.3308-.5886-1.3308-1.3308v-3.3782c0-.7422.5886-1.3309 1.3308-1.3309h15.6883c-.3327-5.5024-.998-10.8001-2.073-16.1746-.0512-.3327.0256-.6654.2303-.9213.2048-.256.5119-.4095.8446-.4095h3.7621c.5887 0 1.075.4095 1.2029.9981 1.0493 5.5536 1.7147 10.9537 2.0474 16.5073h16.3026c.7166 0 1.3308.6143 1.3308 1.3309z" fill="#fff" fill-rule="nonzero"/>
  <path d="M67.9794 129.9837h-.0256m-.1791.0256c-.0768 0-.1536-.0256-.2304-.0256.0768.0256.1536.0256.2304.0256h.0768-.0768zm0 0c-.0768 0-.1536-.0256-.2304-.0256.0768.0256.1536.0256.2304.0256h.0768-.0768z" fill="none"/>
  <path d="M1394.3 532.9c-32.5-79.9-87.4-148-158.8-197-73.1-50.1-158.8-76.6-247.8-76.6-147.2 0-283.8 73.1-365.3 195.6-.9 1.3-1.1 3-.6 4.5.5 1.6 1.7 2.7 3.2 3.2l11.4 3.9c.7.2 1.4.3 2 .3 2.1 0 4.1-1.1 5.3-2.8 37.4-55 88-100.7 146.4-132.3 60.3-32.6 128.6-49.9 197.5-49.9 83.3 0 163.6 24.6 232.4 71 67.1 45.3 119.2 108.6 150.7 182.9.9 2.2 3.1 3.7 5.5 3.7h13.6c1.6 0 3.1-.8 3.9-2.1 1-1.3 1.2-2.9.6-4.4zm-755.9-69.5c-.3 0-.6-.1-.9-.2.3.1.6.2.9.2h.2-.2zm735 74.2c.3.2.6.4.9.5-.3-.2-.6-.3-.9-.5z" fill="url(#_Radial1)" fill-rule="nonzero" transform="matrix(.25593 0 0 .25593 -95.6094 11.4125)"/>
  <defs>
    <radialGradient id="_Radial1" cx="0" cy="0" r="1" gradientUnits="userSpaceOnUse" gradientTransform="translate(1381.52 538.896) scale(760.124)">
      <stop offset="0" stop-color="#fff"/>
      <stop offset=".01" stop-color="#fff"/>
      <stop offset=".03" stop-color="#cbffff"/>
      <stop offset=".06" stop-color="#96ffff"/>
      <stop offset=".08" stop-color="#68ffff"/>
      <stop offset=".11" stop-color="#43ffff"/>
      <stop offset=".14" stop-color="#25ffff"/>
      <stop offset=".16" stop-color="#1ff"/>
      <stop offset=".19" stop-color="#04ffff"/>
      <stop offset=".22" stop-color="#0ff"/>
      <stop offset="1" stop-color="#00f" stop-opacity="0"/>
    </radialGradient>
  </defs>
</svg>
